<mxfile host="65bd71144e" modified="2020-12-21T16:37:03.121Z" agent="5.0 (Macintosh; Intel Mac OS X 10_15_7) AppleWebKit/537.36 (KHTML, like Gecko) Code/1.52.1 Chrome/83.0.4103.122 Electron/9.3.5 Safari/537.36" etag="k6D46tI09NlXg9ysqb56" version="13.10.0" type="embed">
    <diagram id="cSOa6AIjXEHHl2USqDYg" name="Page-1">
        <mxGraphModel dx="1776" dy="820" grid="1" gridSize="10" guides="1" tooltips="1" connect="0" arrows="1" fold="1" page="1" pageScale="1" pageWidth="850" pageHeight="1100" math="0" shadow="0">
            <root>
                <mxCell id="0"/>
                <mxCell id="1" parent="0"/>
                <mxCell id="275" value="answer_results" style="shape=table;startSize=30;container=1;collapsible=0;childLayout=tableLayout;fontStyle=1;align=center;fillColor=none;" parent="1" vertex="1">
                    <mxGeometry x="430" y="340" width="240" height="550" as="geometry"/>
                </mxCell>
                <mxCell id="276" value="" style="shape=partialRectangle;whiteSpace=wrap;collapsible=0;dropTarget=0;pointerEvents=0;fillColor=none;top=0;left=0;bottom=0;right=0;points=[[0,0.5],[1,0.5]];portConstraint=eastwest;" parent="275" vertex="1">
                    <mxGeometry y="30" width="240" height="40" as="geometry"/>
                </mxCell>
                <mxCell id="277" value="PK" style="shape=partialRectangle;whiteSpace=wrap;connectable=0;fillColor=none;top=0;left=0;bottom=0;right=0;overflow=hidden;" parent="276" vertex="1">
                    <mxGeometry width="52" height="40" as="geometry"/>
                </mxCell>
                <mxCell id="278" value="id" style="shape=partialRectangle;whiteSpace=wrap;connectable=0;fillColor=none;top=0;left=0;bottom=0;right=0;overflow=hidden;" parent="276" vertex="1">
                    <mxGeometry x="52" width="125" height="40" as="geometry"/>
                </mxCell>
                <mxCell id="279" value="int" style="shape=partialRectangle;whiteSpace=wrap;connectable=0;fillColor=none;top=0;left=0;bottom=0;right=0;overflow=hidden;" parent="276" vertex="1">
                    <mxGeometry x="177" width="63" height="40" as="geometry"/>
                </mxCell>
                <mxCell id="280" value="" style="shape=partialRectangle;whiteSpace=wrap;collapsible=0;dropTarget=0;pointerEvents=0;fillColor=none;top=0;left=0;bottom=0;right=0;points=[[0,0.5],[1,0.5]];portConstraint=eastwest;" parent="275" vertex="1">
                    <mxGeometry y="70" width="240" height="40" as="geometry"/>
                </mxCell>
                <mxCell id="281" value="" style="shape=partialRectangle;whiteSpace=wrap;connectable=0;fillColor=none;top=0;left=0;bottom=0;right=0;overflow=hidden;" parent="280" vertex="1">
                    <mxGeometry width="52" height="40" as="geometry"/>
                </mxCell>
                <mxCell id="282" value="created_at" style="shape=partialRectangle;whiteSpace=wrap;connectable=0;fillColor=none;top=0;left=0;bottom=0;right=0;overflow=hidden;" parent="280" vertex="1">
                    <mxGeometry x="52" width="125" height="40" as="geometry"/>
                </mxCell>
                <mxCell id="283" value="datetime" style="shape=partialRectangle;whiteSpace=wrap;connectable=0;fillColor=none;top=0;left=0;bottom=0;right=0;overflow=hidden;" parent="280" vertex="1">
                    <mxGeometry x="177" width="63" height="40" as="geometry"/>
                </mxCell>
                <mxCell id="288" value="" style="shape=partialRectangle;whiteSpace=wrap;collapsible=0;dropTarget=0;pointerEvents=0;fillColor=none;top=0;left=0;bottom=0;right=0;points=[[0,0.5],[1,0.5]];portConstraint=eastwest;" parent="275" vertex="1">
                    <mxGeometry y="110" width="240" height="40" as="geometry"/>
                </mxCell>
                <mxCell id="289" value="" style="shape=partialRectangle;whiteSpace=wrap;connectable=0;fillColor=none;top=0;left=0;bottom=0;right=0;overflow=hidden;" parent="288" vertex="1">
                    <mxGeometry width="52" height="40" as="geometry"/>
                </mxCell>
                <mxCell id="290" value="updated_at" style="shape=partialRectangle;whiteSpace=wrap;connectable=0;fillColor=none;top=0;left=0;bottom=0;right=0;overflow=hidden;" parent="288" vertex="1">
                    <mxGeometry x="52" width="125" height="40" as="geometry"/>
                </mxCell>
                <mxCell id="291" value="datetime" style="shape=partialRectangle;whiteSpace=wrap;connectable=0;fillColor=none;top=0;left=0;bottom=0;right=0;overflow=hidden;" parent="288" vertex="1">
                    <mxGeometry x="177" width="63" height="40" as="geometry"/>
                </mxCell>
                <mxCell id="284" value="" style="shape=partialRectangle;whiteSpace=wrap;collapsible=0;dropTarget=0;pointerEvents=0;fillColor=none;top=0;left=0;bottom=0;right=0;points=[[0,0.5],[1,0.5]];portConstraint=eastwest;" parent="275" vertex="1">
                    <mxGeometry y="150" width="240" height="40" as="geometry"/>
                </mxCell>
                <mxCell id="285" value="" style="shape=partialRectangle;whiteSpace=wrap;connectable=0;fillColor=none;top=0;left=0;bottom=0;right=0;overflow=hidden;" parent="284" vertex="1">
                    <mxGeometry width="52" height="40" as="geometry"/>
                </mxCell>
                <mxCell id="286" value="deleted_at" style="shape=partialRectangle;whiteSpace=wrap;connectable=0;fillColor=none;top=0;left=0;bottom=0;right=0;overflow=hidden;" parent="284" vertex="1">
                    <mxGeometry x="52" width="125" height="40" as="geometry"/>
                </mxCell>
                <mxCell id="287" value="datetime" style="shape=partialRectangle;whiteSpace=wrap;connectable=0;fillColor=none;top=0;left=0;bottom=0;right=0;overflow=hidden;" parent="284" vertex="1">
                    <mxGeometry x="177" width="63" height="40" as="geometry"/>
                </mxCell>
                <mxCell id="341" value="" style="shape=partialRectangle;whiteSpace=wrap;collapsible=0;dropTarget=0;pointerEvents=0;fillColor=none;top=0;left=0;bottom=0;right=0;points=[[0,0.5],[1,0.5]];portConstraint=eastwest;" parent="275" vertex="1">
                    <mxGeometry y="190" width="240" height="40" as="geometry"/>
                </mxCell>
                <mxCell id="342" value="FK" style="shape=partialRectangle;whiteSpace=wrap;connectable=0;fillColor=none;top=0;left=0;bottom=0;right=0;overflow=hidden;" parent="341" vertex="1">
                    <mxGeometry width="52" height="40" as="geometry"/>
                </mxCell>
                <mxCell id="343" value="user_id" style="shape=partialRectangle;whiteSpace=wrap;connectable=0;fillColor=none;top=0;left=0;bottom=0;right=0;overflow=hidden;" parent="341" vertex="1">
                    <mxGeometry x="52" width="125" height="40" as="geometry"/>
                </mxCell>
                <mxCell id="344" value="int" style="shape=partialRectangle;whiteSpace=wrap;connectable=0;fillColor=none;top=0;left=0;bottom=0;right=0;overflow=hidden;" parent="341" vertex="1">
                    <mxGeometry x="177" width="63" height="40" as="geometry"/>
                </mxCell>
                <mxCell id="345" value="" style="shape=partialRectangle;whiteSpace=wrap;collapsible=0;dropTarget=0;pointerEvents=0;fillColor=none;top=0;left=0;bottom=0;right=0;points=[[0,0.5],[1,0.5]];portConstraint=eastwest;" parent="275" vertex="1">
                    <mxGeometry y="230" width="240" height="40" as="geometry"/>
                </mxCell>
                <mxCell id="346" value="" style="shape=partialRectangle;whiteSpace=wrap;connectable=0;fillColor=none;top=0;left=0;bottom=0;right=0;overflow=hidden;" parent="345" vertex="1">
                    <mxGeometry width="52" height="40" as="geometry"/>
                </mxCell>
                <mxCell id="347" value="user_answer" style="shape=partialRectangle;whiteSpace=wrap;connectable=0;fillColor=none;top=0;left=0;bottom=0;right=0;overflow=hidden;" parent="345" vertex="1">
                    <mxGeometry x="52" width="125" height="40" as="geometry"/>
                </mxCell>
                <mxCell id="348" value="varchar" style="shape=partialRectangle;whiteSpace=wrap;connectable=0;fillColor=none;top=0;left=0;bottom=0;right=0;overflow=hidden;" parent="345" vertex="1">
                    <mxGeometry x="177" width="63" height="40" as="geometry"/>
                </mxCell>
                <mxCell id="349" value="" style="shape=partialRectangle;whiteSpace=wrap;collapsible=0;dropTarget=0;pointerEvents=0;fillColor=none;top=0;left=0;bottom=0;right=0;points=[[0,0.5],[1,0.5]];portConstraint=eastwest;" parent="275" vertex="1">
                    <mxGeometry y="270" width="240" height="40" as="geometry"/>
                </mxCell>
                <mxCell id="350" value="" style="shape=partialRectangle;whiteSpace=wrap;connectable=0;fillColor=none;top=0;left=0;bottom=0;right=0;overflow=hidden;" parent="349" vertex="1">
                    <mxGeometry width="52" height="40" as="geometry"/>
                </mxCell>
                <mxCell id="351" value="answer_result" style="shape=partialRectangle;whiteSpace=wrap;connectable=0;fillColor=none;top=0;left=0;bottom=0;right=0;overflow=hidden;" parent="349" vertex="1">
                    <mxGeometry x="52" width="125" height="40" as="geometry"/>
                </mxCell>
                <mxCell id="352" value="varchar" style="shape=partialRectangle;whiteSpace=wrap;connectable=0;fillColor=none;top=0;left=0;bottom=0;right=0;overflow=hidden;" parent="349" vertex="1">
                    <mxGeometry x="177" width="63" height="40" as="geometry"/>
                </mxCell>
                <mxCell id="353" value="" style="shape=partialRectangle;whiteSpace=wrap;collapsible=0;dropTarget=0;pointerEvents=0;fillColor=none;top=0;left=0;bottom=0;right=0;points=[[0,0.5],[1,0.5]];portConstraint=eastwest;" parent="275" vertex="1">
                    <mxGeometry y="310" width="240" height="40" as="geometry"/>
                </mxCell>
                <mxCell id="354" value="" style="shape=partialRectangle;whiteSpace=wrap;connectable=0;fillColor=none;top=0;left=0;bottom=0;right=0;overflow=hidden;" parent="353" vertex="1">
                    <mxGeometry width="52" height="40" as="geometry"/>
                </mxCell>
                <mxCell id="355" value="memo_log" style="shape=partialRectangle;whiteSpace=wrap;connectable=0;fillColor=none;top=0;left=0;bottom=0;right=0;overflow=hidden;" parent="353" vertex="1">
                    <mxGeometry x="52" width="125" height="40" as="geometry"/>
                </mxCell>
                <mxCell id="356" value="text" style="shape=partialRectangle;whiteSpace=wrap;connectable=0;fillColor=none;top=0;left=0;bottom=0;right=0;overflow=hidden;" parent="353" vertex="1">
                    <mxGeometry x="177" width="63" height="40" as="geometry"/>
                </mxCell>
                <mxCell id="357" value="" style="shape=partialRectangle;whiteSpace=wrap;collapsible=0;dropTarget=0;pointerEvents=0;fillColor=none;top=0;left=0;bottom=0;right=0;points=[[0,0.5],[1,0.5]];portConstraint=eastwest;" parent="275" vertex="1">
                    <mxGeometry y="350" width="240" height="40" as="geometry"/>
                </mxCell>
                <mxCell id="358" value="" style="shape=partialRectangle;whiteSpace=wrap;connectable=0;fillColor=none;top=0;left=0;bottom=0;right=0;overflow=hidden;" parent="357" vertex="1">
                    <mxGeometry width="52" height="40" as="geometry"/>
                </mxCell>
                <mxCell id="359" value="start_time" style="shape=partialRectangle;whiteSpace=wrap;connectable=0;fillColor=none;top=0;left=0;bottom=0;right=0;overflow=hidden;" parent="357" vertex="1">
                    <mxGeometry x="52" width="125" height="40" as="geometry"/>
                </mxCell>
                <mxCell id="360" value="datetime" style="shape=partialRectangle;whiteSpace=wrap;connectable=0;fillColor=none;top=0;left=0;bottom=0;right=0;overflow=hidden;" parent="357" vertex="1">
                    <mxGeometry x="177" width="63" height="40" as="geometry"/>
                </mxCell>
                <mxCell id="361" value="" style="shape=partialRectangle;whiteSpace=wrap;collapsible=0;dropTarget=0;pointerEvents=0;fillColor=none;top=0;left=0;bottom=0;right=0;points=[[0,0.5],[1,0.5]];portConstraint=eastwest;" parent="275" vertex="1">
                    <mxGeometry y="390" width="240" height="40" as="geometry"/>
                </mxCell>
                <mxCell id="362" value="" style="shape=partialRectangle;whiteSpace=wrap;connectable=0;fillColor=none;top=0;left=0;bottom=0;right=0;overflow=hidden;" parent="361" vertex="1">
                    <mxGeometry width="52" height="40" as="geometry"/>
                </mxCell>
                <mxCell id="363" value="end_time" style="shape=partialRectangle;whiteSpace=wrap;connectable=0;fillColor=none;top=0;left=0;bottom=0;right=0;overflow=hidden;" parent="361" vertex="1">
                    <mxGeometry x="52" width="125" height="40" as="geometry"/>
                </mxCell>
                <mxCell id="364" value="datetime" style="shape=partialRectangle;whiteSpace=wrap;connectable=0;fillColor=none;top=0;left=0;bottom=0;right=0;overflow=hidden;" parent="361" vertex="1">
                    <mxGeometry x="177" width="63" height="40" as="geometry"/>
                </mxCell>
                <mxCell id="365" value="" style="shape=partialRectangle;whiteSpace=wrap;collapsible=0;dropTarget=0;pointerEvents=0;fillColor=none;top=0;left=0;bottom=0;right=0;points=[[0,0.5],[1,0.5]];portConstraint=eastwest;" parent="275" vertex="1">
                    <mxGeometry y="430" width="240" height="40" as="geometry"/>
                </mxCell>
                <mxCell id="366" value="" style="shape=partialRectangle;whiteSpace=wrap;connectable=0;fillColor=none;top=0;left=0;bottom=0;right=0;overflow=hidden;" parent="365" vertex="1">
                    <mxGeometry width="52" height="40" as="geometry"/>
                </mxCell>
                <mxCell id="367" value="other_focus_second" style="shape=partialRectangle;whiteSpace=wrap;connectable=0;fillColor=none;top=0;left=0;bottom=0;right=0;overflow=hidden;" parent="365" vertex="1">
                    <mxGeometry x="52" width="125" height="40" as="geometry"/>
                </mxCell>
                <mxCell id="368" value="int" style="shape=partialRectangle;whiteSpace=wrap;connectable=0;fillColor=none;top=0;left=0;bottom=0;right=0;overflow=hidden;" parent="365" vertex="1">
                    <mxGeometry x="177" width="63" height="40" as="geometry"/>
                </mxCell>
                <mxCell id="369" value="" style="shape=partialRectangle;whiteSpace=wrap;collapsible=0;dropTarget=0;pointerEvents=0;fillColor=none;top=0;left=0;bottom=0;right=0;points=[[0,0.5],[1,0.5]];portConstraint=eastwest;" parent="275" vertex="1">
                    <mxGeometry y="470" width="240" height="40" as="geometry"/>
                </mxCell>
                <mxCell id="370" value="FK" style="shape=partialRectangle;whiteSpace=wrap;connectable=0;fillColor=none;top=0;left=0;bottom=0;right=0;overflow=hidden;" parent="369" vertex="1">
                    <mxGeometry width="52" height="40" as="geometry"/>
                </mxCell>
                <mxCell id="371" value="question_id" style="shape=partialRectangle;whiteSpace=wrap;connectable=0;fillColor=none;top=0;left=0;bottom=0;right=0;overflow=hidden;" parent="369" vertex="1">
                    <mxGeometry x="52" width="125" height="40" as="geometry"/>
                </mxCell>
                <mxCell id="372" value="int" style="shape=partialRectangle;whiteSpace=wrap;connectable=0;fillColor=none;top=0;left=0;bottom=0;right=0;overflow=hidden;" parent="369" vertex="1">
                    <mxGeometry x="177" width="63" height="40" as="geometry"/>
                </mxCell>
                <mxCell id="373" value="" style="shape=partialRectangle;whiteSpace=wrap;collapsible=0;dropTarget=0;pointerEvents=0;fillColor=none;top=0;left=0;bottom=0;right=0;points=[[0,0.5],[1,0.5]];portConstraint=eastwest;" parent="275" vertex="1">
                    <mxGeometry y="510" width="240" height="40" as="geometry"/>
                </mxCell>
                <mxCell id="374" value="" style="shape=partialRectangle;whiteSpace=wrap;connectable=0;fillColor=none;top=0;left=0;bottom=0;right=0;overflow=hidden;" parent="373" vertex="1">
                    <mxGeometry width="52" height="40" as="geometry"/>
                </mxCell>
                <mxCell id="375" value="concentration_data" style="shape=partialRectangle;whiteSpace=wrap;connectable=0;fillColor=none;top=0;left=0;bottom=0;right=0;overflow=hidden;" parent="373" vertex="1">
                    <mxGeometry x="52" width="125" height="40" as="geometry"/>
                </mxCell>
                <mxCell id="376" value="varchar" style="shape=partialRectangle;whiteSpace=wrap;connectable=0;fillColor=none;top=0;left=0;bottom=0;right=0;overflow=hidden;" parent="373" vertex="1">
                    <mxGeometry x="177" width="63" height="40" as="geometry"/>
                </mxCell>
                <mxCell id="301" value="users" style="shape=table;startSize=30;container=1;collapsible=0;childLayout=tableLayout;fontStyle=1;align=center;fillColor=none;" parent="1" vertex="1">
                    <mxGeometry x="40" y="340" width="240" height="320" as="geometry"/>
                </mxCell>
                <mxCell id="302" value="" style="shape=partialRectangle;whiteSpace=wrap;collapsible=0;dropTarget=0;pointerEvents=0;fillColor=none;top=0;left=0;bottom=0;right=0;points=[[0,0.5],[1,0.5]];portConstraint=eastwest;" parent="301" vertex="1">
                    <mxGeometry y="30" width="240" height="40" as="geometry"/>
                </mxCell>
                <mxCell id="303" value="PK" style="shape=partialRectangle;whiteSpace=wrap;connectable=0;fillColor=none;top=0;left=0;bottom=0;right=0;overflow=hidden;" parent="302" vertex="1">
                    <mxGeometry width="52" height="40" as="geometry"/>
                </mxCell>
                <mxCell id="304" value="id" style="shape=partialRectangle;whiteSpace=wrap;connectable=0;fillColor=none;top=0;left=0;bottom=0;right=0;overflow=hidden;" parent="302" vertex="1">
                    <mxGeometry x="52" width="125" height="40" as="geometry"/>
                </mxCell>
                <mxCell id="305" value="int" style="shape=partialRectangle;whiteSpace=wrap;connectable=0;fillColor=none;top=0;left=0;bottom=0;right=0;overflow=hidden;" parent="302" vertex="1">
                    <mxGeometry x="177" width="63" height="40" as="geometry"/>
                </mxCell>
                <mxCell id="306" value="" style="shape=partialRectangle;whiteSpace=wrap;collapsible=0;dropTarget=0;pointerEvents=0;fillColor=none;top=0;left=0;bottom=0;right=0;points=[[0,0.5],[1,0.5]];portConstraint=eastwest;" parent="301" vertex="1">
                    <mxGeometry y="70" width="240" height="40" as="geometry"/>
                </mxCell>
                <mxCell id="307" value="" style="shape=partialRectangle;whiteSpace=wrap;connectable=0;fillColor=none;top=0;left=0;bottom=0;right=0;overflow=hidden;" parent="306" vertex="1">
                    <mxGeometry width="52" height="40" as="geometry"/>
                </mxCell>
                <mxCell id="308" value="created_at" style="shape=partialRectangle;whiteSpace=wrap;connectable=0;fillColor=none;top=0;left=0;bottom=0;right=0;overflow=hidden;" parent="306" vertex="1">
                    <mxGeometry x="52" width="125" height="40" as="geometry"/>
                </mxCell>
                <mxCell id="309" value="datetime" style="shape=partialRectangle;whiteSpace=wrap;connectable=0;fillColor=none;top=0;left=0;bottom=0;right=0;overflow=hidden;" parent="306" vertex="1">
                    <mxGeometry x="177" width="63" height="40" as="geometry"/>
                </mxCell>
                <mxCell id="310" value="" style="shape=partialRectangle;whiteSpace=wrap;collapsible=0;dropTarget=0;pointerEvents=0;fillColor=none;top=0;left=0;bottom=0;right=0;points=[[0,0.5],[1,0.5]];portConstraint=eastwest;" parent="301" vertex="1">
                    <mxGeometry y="110" width="240" height="40" as="geometry"/>
                </mxCell>
                <mxCell id="311" value="" style="shape=partialRectangle;whiteSpace=wrap;connectable=0;fillColor=none;top=0;left=0;bottom=0;right=0;overflow=hidden;" parent="310" vertex="1">
                    <mxGeometry width="52" height="40" as="geometry"/>
                </mxCell>
                <mxCell id="312" value="updated_at" style="shape=partialRectangle;whiteSpace=wrap;connectable=0;fillColor=none;top=0;left=0;bottom=0;right=0;overflow=hidden;" parent="310" vertex="1">
                    <mxGeometry x="52" width="125" height="40" as="geometry"/>
                </mxCell>
                <mxCell id="313" value="datetime" style="shape=partialRectangle;whiteSpace=wrap;connectable=0;fillColor=none;top=0;left=0;bottom=0;right=0;overflow=hidden;" parent="310" vertex="1">
                    <mxGeometry x="177" width="63" height="40" as="geometry"/>
                </mxCell>
                <mxCell id="331" value="" style="shape=partialRectangle;whiteSpace=wrap;collapsible=0;dropTarget=0;pointerEvents=0;fillColor=none;top=0;left=0;bottom=0;right=0;points=[[0,0.5],[1,0.5]];portConstraint=eastwest;" parent="301" vertex="1">
                    <mxGeometry y="150" width="240" height="40" as="geometry"/>
                </mxCell>
                <mxCell id="332" value="" style="shape=partialRectangle;whiteSpace=wrap;connectable=0;fillColor=none;top=0;left=0;bottom=0;right=0;overflow=hidden;" parent="331" vertex="1">
                    <mxGeometry width="52" height="40" as="geometry"/>
                </mxCell>
                <mxCell id="333" value="deleted_at" style="shape=partialRectangle;whiteSpace=wrap;connectable=0;fillColor=none;top=0;left=0;bottom=0;right=0;overflow=hidden;" parent="331" vertex="1">
                    <mxGeometry x="52" width="125" height="40" as="geometry"/>
                </mxCell>
                <mxCell id="334" value="datetime" style="shape=partialRectangle;whiteSpace=wrap;connectable=0;fillColor=none;top=0;left=0;bottom=0;right=0;overflow=hidden;" parent="331" vertex="1">
                    <mxGeometry x="177" width="63" height="40" as="geometry"/>
                </mxCell>
                <mxCell id="318" value="" style="shape=partialRectangle;whiteSpace=wrap;collapsible=0;dropTarget=0;pointerEvents=0;fillColor=none;top=0;left=0;bottom=0;right=0;points=[[0,0.5],[1,0.5]];portConstraint=eastwest;" parent="301" vertex="1">
                    <mxGeometry y="190" width="240" height="50" as="geometry"/>
                </mxCell>
                <mxCell id="319" value="" style="shape=partialRectangle;whiteSpace=wrap;connectable=0;fillColor=none;top=0;left=0;bottom=0;right=0;overflow=hidden;" parent="318" vertex="1">
                    <mxGeometry width="52" height="50" as="geometry"/>
                </mxCell>
                <mxCell id="320" value="username" style="shape=partialRectangle;whiteSpace=wrap;connectable=0;fillColor=none;top=0;left=0;bottom=0;right=0;overflow=hidden;" parent="318" vertex="1">
                    <mxGeometry x="52" width="125" height="50" as="geometry"/>
                </mxCell>
                <mxCell id="321" value="varchar" style="shape=partialRectangle;whiteSpace=wrap;connectable=0;fillColor=none;top=0;left=0;bottom=0;right=0;overflow=hidden;" parent="318" vertex="1">
                    <mxGeometry x="177" width="63" height="50" as="geometry"/>
                </mxCell>
                <mxCell id="322" value="" style="shape=partialRectangle;whiteSpace=wrap;collapsible=0;dropTarget=0;pointerEvents=0;fillColor=none;top=0;left=0;bottom=0;right=0;points=[[0,0.5],[1,0.5]];portConstraint=eastwest;" parent="301" vertex="1">
                    <mxGeometry y="240" width="240" height="40" as="geometry"/>
                </mxCell>
                <mxCell id="323" value="" style="shape=partialRectangle;whiteSpace=wrap;connectable=0;fillColor=none;top=0;left=0;bottom=0;right=0;overflow=hidden;" parent="322" vertex="1">
                    <mxGeometry width="52" height="40" as="geometry"/>
                </mxCell>
                <mxCell id="324" value="email" style="shape=partialRectangle;whiteSpace=wrap;connectable=0;fillColor=none;top=0;left=0;bottom=0;right=0;overflow=hidden;" parent="322" vertex="1">
                    <mxGeometry x="52" width="125" height="40" as="geometry"/>
                </mxCell>
                <mxCell id="325" value="varchar" style="shape=partialRectangle;whiteSpace=wrap;connectable=0;fillColor=none;top=0;left=0;bottom=0;right=0;overflow=hidden;" parent="322" vertex="1">
                    <mxGeometry x="177" width="63" height="40" as="geometry"/>
                </mxCell>
                <mxCell id="326" value="" style="shape=partialRectangle;whiteSpace=wrap;collapsible=0;dropTarget=0;pointerEvents=0;fillColor=none;top=0;left=0;bottom=0;right=0;points=[[0,0.5],[1,0.5]];portConstraint=eastwest;" parent="301" vertex="1">
                    <mxGeometry y="280" width="240" height="40" as="geometry"/>
                </mxCell>
                <mxCell id="327" value="" style="shape=partialRectangle;whiteSpace=wrap;connectable=0;fillColor=none;top=0;left=0;bottom=0;right=0;overflow=hidden;" parent="326" vertex="1">
                    <mxGeometry width="52" height="40" as="geometry"/>
                </mxCell>
                <mxCell id="328" value="password_digest" style="shape=partialRectangle;whiteSpace=wrap;connectable=0;fillColor=none;top=0;left=0;bottom=0;right=0;overflow=hidden;" parent="326" vertex="1">
                    <mxGeometry x="52" width="125" height="40" as="geometry"/>
                </mxCell>
                <mxCell id="329" value="varchar" style="shape=partialRectangle;whiteSpace=wrap;connectable=0;fillColor=none;top=0;left=0;bottom=0;right=0;overflow=hidden;" parent="326" vertex="1">
                    <mxGeometry x="177" width="63" height="40" as="geometry"/>
                </mxCell>
                <mxCell id="330" value="" style="edgeStyle=entityRelationEdgeStyle;fontSize=12;endArrow=ERzeroToMany;startArrow=ERzeroToOne;" parent="1" source="302" target="341" edge="1">
                    <mxGeometry width="100" height="100" relative="1" as="geometry">
                        <mxPoint x="280" y="580" as="sourcePoint"/>
                        <mxPoint x="421.4213562373095" y="480" as="targetPoint"/>
                    </mxGeometry>
                </mxCell>
                <mxCell id="428" value="questions" style="shape=table;startSize=30;container=1;collapsible=0;childLayout=tableLayout;fontStyle=1;align=center;fillColor=none;" parent="1" vertex="1">
                    <mxGeometry x="40" y="679" width="240" height="710" as="geometry"/>
                </mxCell>
                <mxCell id="429" value="" style="shape=partialRectangle;whiteSpace=wrap;collapsible=0;dropTarget=0;pointerEvents=0;fillColor=none;top=0;left=0;bottom=0;right=0;points=[[0,0.5],[1,0.5]];portConstraint=eastwest;" parent="428" vertex="1">
                    <mxGeometry y="30" width="240" height="40" as="geometry"/>
                </mxCell>
                <mxCell id="430" value="PK" style="shape=partialRectangle;whiteSpace=wrap;connectable=0;fillColor=none;top=0;left=0;bottom=0;right=0;overflow=hidden;" parent="429" vertex="1">
                    <mxGeometry width="52" height="40" as="geometry"/>
                </mxCell>
                <mxCell id="431" value="id" style="shape=partialRectangle;whiteSpace=wrap;connectable=0;fillColor=none;top=0;left=0;bottom=0;right=0;overflow=hidden;" parent="429" vertex="1">
                    <mxGeometry x="52" width="118" height="40" as="geometry"/>
                </mxCell>
                <mxCell id="432" value="int" style="shape=partialRectangle;whiteSpace=wrap;connectable=0;fillColor=none;top=0;left=0;bottom=0;right=0;overflow=hidden;" parent="429" vertex="1">
                    <mxGeometry x="170" width="70" height="40" as="geometry"/>
                </mxCell>
                <mxCell id="433" value="" style="shape=partialRectangle;whiteSpace=wrap;collapsible=0;dropTarget=0;pointerEvents=0;fillColor=none;top=0;left=0;bottom=0;right=0;points=[[0,0.5],[1,0.5]];portConstraint=eastwest;" parent="428" vertex="1">
                    <mxGeometry y="70" width="240" height="40" as="geometry"/>
                </mxCell>
                <mxCell id="434" value="" style="shape=partialRectangle;whiteSpace=wrap;connectable=0;fillColor=none;top=0;left=0;bottom=0;right=0;overflow=hidden;" parent="433" vertex="1">
                    <mxGeometry width="52" height="40" as="geometry"/>
                </mxCell>
                <mxCell id="435" value="created_at" style="shape=partialRectangle;whiteSpace=wrap;connectable=0;fillColor=none;top=0;left=0;bottom=0;right=0;overflow=hidden;" parent="433" vertex="1">
                    <mxGeometry x="52" width="118" height="40" as="geometry"/>
                </mxCell>
                <mxCell id="436" value="datetime" style="shape=partialRectangle;whiteSpace=wrap;connectable=0;fillColor=none;top=0;left=0;bottom=0;right=0;overflow=hidden;" parent="433" vertex="1">
                    <mxGeometry x="170" width="70" height="40" as="geometry"/>
                </mxCell>
                <mxCell id="437" value="" style="shape=partialRectangle;whiteSpace=wrap;collapsible=0;dropTarget=0;pointerEvents=0;fillColor=none;top=0;left=0;bottom=0;right=0;points=[[0,0.5],[1,0.5]];portConstraint=eastwest;" parent="428" vertex="1">
                    <mxGeometry y="110" width="240" height="40" as="geometry"/>
                </mxCell>
                <mxCell id="438" value="" style="shape=partialRectangle;whiteSpace=wrap;connectable=0;fillColor=none;top=0;left=0;bottom=0;right=0;overflow=hidden;" parent="437" vertex="1">
                    <mxGeometry width="52" height="40" as="geometry"/>
                </mxCell>
                <mxCell id="439" value="updated_at" style="shape=partialRectangle;whiteSpace=wrap;connectable=0;fillColor=none;top=0;left=0;bottom=0;right=0;overflow=hidden;" parent="437" vertex="1">
                    <mxGeometry x="52" width="118" height="40" as="geometry"/>
                </mxCell>
                <mxCell id="440" value="datetime" style="shape=partialRectangle;whiteSpace=wrap;connectable=0;fillColor=none;top=0;left=0;bottom=0;right=0;overflow=hidden;" parent="437" vertex="1">
                    <mxGeometry x="170" width="70" height="40" as="geometry"/>
                </mxCell>
                <mxCell id="441" value="" style="shape=partialRectangle;whiteSpace=wrap;collapsible=0;dropTarget=0;pointerEvents=0;fillColor=none;top=0;left=0;bottom=0;right=0;points=[[0,0.5],[1,0.5]];portConstraint=eastwest;" parent="428" vertex="1">
                    <mxGeometry y="150" width="240" height="40" as="geometry"/>
                </mxCell>
                <mxCell id="442" value="" style="shape=partialRectangle;whiteSpace=wrap;connectable=0;fillColor=none;top=0;left=0;bottom=0;right=0;overflow=hidden;" parent="441" vertex="1">
                    <mxGeometry width="52" height="40" as="geometry"/>
                </mxCell>
                <mxCell id="443" value="deleted_at" style="shape=partialRectangle;whiteSpace=wrap;connectable=0;fillColor=none;top=0;left=0;bottom=0;right=0;overflow=hidden;" parent="441" vertex="1">
                    <mxGeometry x="52" width="118" height="40" as="geometry"/>
                </mxCell>
                <mxCell id="444" value="datetime" style="shape=partialRectangle;whiteSpace=wrap;connectable=0;fillColor=none;top=0;left=0;bottom=0;right=0;overflow=hidden;" parent="441" vertex="1">
                    <mxGeometry x="170" width="70" height="40" as="geometry"/>
                </mxCell>
                <mxCell id="445" value="" style="shape=partialRectangle;whiteSpace=wrap;collapsible=0;dropTarget=0;pointerEvents=0;fillColor=none;top=0;left=0;bottom=0;right=0;points=[[0,0.5],[1,0.5]];portConstraint=eastwest;" parent="428" vertex="1">
                    <mxGeometry y="190" width="240" height="40" as="geometry"/>
                </mxCell>
                <mxCell id="446" value="" style="shape=partialRectangle;whiteSpace=wrap;connectable=0;fillColor=none;top=0;left=0;bottom=0;right=0;overflow=hidden;" parent="445" vertex="1">
                    <mxGeometry width="52" height="40" as="geometry"/>
                </mxCell>
                <mxCell id="447" value="question" style="shape=partialRectangle;whiteSpace=wrap;connectable=0;fillColor=none;top=0;left=0;bottom=0;right=0;overflow=hidden;" parent="445" vertex="1">
                    <mxGeometry x="52" width="118" height="40" as="geometry"/>
                </mxCell>
                <mxCell id="448" value="text" style="shape=partialRectangle;whiteSpace=wrap;connectable=0;fillColor=none;top=0;left=0;bottom=0;right=0;overflow=hidden;" parent="445" vertex="1">
                    <mxGeometry x="170" width="70" height="40" as="geometry"/>
                </mxCell>
                <mxCell id="449" value="" style="shape=partialRectangle;whiteSpace=wrap;collapsible=0;dropTarget=0;pointerEvents=0;fillColor=none;top=0;left=0;bottom=0;right=0;points=[[0,0.5],[1,0.5]];portConstraint=eastwest;" parent="428" vertex="1">
                    <mxGeometry y="230" width="240" height="40" as="geometry"/>
                </mxCell>
                <mxCell id="450" value="" style="shape=partialRectangle;whiteSpace=wrap;connectable=0;fillColor=none;top=0;left=0;bottom=0;right=0;overflow=hidden;" parent="449" vertex="1">
                    <mxGeometry width="52" height="40" as="geometry"/>
                </mxCell>
                <mxCell id="451" value="qimg_path" style="shape=partialRectangle;whiteSpace=wrap;connectable=0;fillColor=none;top=0;left=0;bottom=0;right=0;overflow=hidden;" parent="449" vertex="1">
                    <mxGeometry x="52" width="118" height="40" as="geometry"/>
                </mxCell>
                <mxCell id="452" value="varchar" style="shape=partialRectangle;whiteSpace=wrap;connectable=0;fillColor=none;top=0;left=0;bottom=0;right=0;overflow=hidden;" parent="449" vertex="1">
                    <mxGeometry x="170" width="70" height="40" as="geometry"/>
                </mxCell>
                <mxCell id="453" value="" style="shape=partialRectangle;whiteSpace=wrap;collapsible=0;dropTarget=0;pointerEvents=0;fillColor=none;top=0;left=0;bottom=0;right=0;points=[[0,0.5],[1,0.5]];portConstraint=eastwest;" parent="428" vertex="1">
                    <mxGeometry y="270" width="240" height="40" as="geometry"/>
                </mxCell>
                <mxCell id="454" value="" style="shape=partialRectangle;whiteSpace=wrap;connectable=0;fillColor=none;top=0;left=0;bottom=0;right=0;overflow=hidden;" parent="453" vertex="1">
                    <mxGeometry width="52" height="40" as="geometry"/>
                </mxCell>
                <mxCell id="455" value="mistake1" style="shape=partialRectangle;whiteSpace=wrap;connectable=0;fillColor=none;top=0;left=0;bottom=0;right=0;overflow=hidden;" parent="453" vertex="1">
                    <mxGeometry x="52" width="118" height="40" as="geometry"/>
                </mxCell>
                <mxCell id="456" value="char" style="shape=partialRectangle;whiteSpace=wrap;connectable=0;fillColor=none;top=0;left=0;bottom=0;right=0;overflow=hidden;" parent="453" vertex="1">
                    <mxGeometry x="170" width="70" height="40" as="geometry"/>
                </mxCell>
                <mxCell id="457" value="" style="shape=partialRectangle;whiteSpace=wrap;collapsible=0;dropTarget=0;pointerEvents=0;fillColor=none;top=0;left=0;bottom=0;right=0;points=[[0,0.5],[1,0.5]];portConstraint=eastwest;" parent="428" vertex="1">
                    <mxGeometry y="310" width="240" height="40" as="geometry"/>
                </mxCell>
                <mxCell id="458" value="" style="shape=partialRectangle;whiteSpace=wrap;connectable=0;fillColor=none;top=0;left=0;bottom=0;right=0;overflow=hidden;" parent="457" vertex="1">
                    <mxGeometry width="52" height="40" as="geometry"/>
                </mxCell>
                <mxCell id="459" value="mistake2" style="shape=partialRectangle;whiteSpace=wrap;connectable=0;fillColor=none;top=0;left=0;bottom=0;right=0;overflow=hidden;" parent="457" vertex="1">
                    <mxGeometry x="52" width="118" height="40" as="geometry"/>
                </mxCell>
                <mxCell id="460" value="char" style="shape=partialRectangle;whiteSpace=wrap;connectable=0;fillColor=none;top=0;left=0;bottom=0;right=0;overflow=hidden;" parent="457" vertex="1">
                    <mxGeometry x="170" width="70" height="40" as="geometry"/>
                </mxCell>
                <mxCell id="461" value="" style="shape=partialRectangle;whiteSpace=wrap;collapsible=0;dropTarget=0;pointerEvents=0;fillColor=none;top=0;left=0;bottom=0;right=0;points=[[0,0.5],[1,0.5]];portConstraint=eastwest;" parent="428" vertex="1">
                    <mxGeometry y="350" width="240" height="40" as="geometry"/>
                </mxCell>
                <mxCell id="462" value="" style="shape=partialRectangle;whiteSpace=wrap;connectable=0;fillColor=none;top=0;left=0;bottom=0;right=0;overflow=hidden;" parent="461" vertex="1">
                    <mxGeometry width="52" height="40" as="geometry"/>
                </mxCell>
                <mxCell id="463" value="mistake3" style="shape=partialRectangle;whiteSpace=wrap;connectable=0;fillColor=none;top=0;left=0;bottom=0;right=0;overflow=hidden;" parent="461" vertex="1">
                    <mxGeometry x="52" width="118" height="40" as="geometry"/>
                </mxCell>
                <mxCell id="464" value="char" style="shape=partialRectangle;whiteSpace=wrap;connectable=0;fillColor=none;top=0;left=0;bottom=0;right=0;overflow=hidden;" parent="461" vertex="1">
                    <mxGeometry x="170" width="70" height="40" as="geometry"/>
                </mxCell>
                <mxCell id="465" value="" style="shape=partialRectangle;whiteSpace=wrap;collapsible=0;dropTarget=0;pointerEvents=0;fillColor=none;top=0;left=0;bottom=0;right=0;points=[[0,0.5],[1,0.5]];portConstraint=eastwest;" parent="428" vertex="1">
                    <mxGeometry y="390" width="240" height="40" as="geometry"/>
                </mxCell>
                <mxCell id="466" value="" style="shape=partialRectangle;whiteSpace=wrap;connectable=0;fillColor=none;top=0;left=0;bottom=0;right=0;overflow=hidden;" parent="465" vertex="1">
                    <mxGeometry width="52" height="40" as="geometry"/>
                </mxCell>
                <mxCell id="467" value="ans" style="shape=partialRectangle;whiteSpace=wrap;connectable=0;fillColor=none;top=0;left=0;bottom=0;right=0;overflow=hidden;" parent="465" vertex="1">
                    <mxGeometry x="52" width="118" height="40" as="geometry"/>
                </mxCell>
                <mxCell id="468" value="char" style="shape=partialRectangle;whiteSpace=wrap;connectable=0;fillColor=none;top=0;left=0;bottom=0;right=0;overflow=hidden;" parent="465" vertex="1">
                    <mxGeometry x="170" width="70" height="40" as="geometry"/>
                </mxCell>
                <mxCell id="469" value="" style="shape=partialRectangle;whiteSpace=wrap;collapsible=0;dropTarget=0;pointerEvents=0;fillColor=none;top=0;left=0;bottom=0;right=0;points=[[0,0.5],[1,0.5]];portConstraint=eastwest;" parent="428" vertex="1">
                    <mxGeometry y="430" width="240" height="40" as="geometry"/>
                </mxCell>
                <mxCell id="470" value="" style="shape=partialRectangle;whiteSpace=wrap;connectable=0;fillColor=none;top=0;left=0;bottom=0;right=0;overflow=hidden;" parent="469" vertex="1">
                    <mxGeometry width="52" height="40" as="geometry"/>
                </mxCell>
                <mxCell id="471" value="mimg_path1" style="shape=partialRectangle;whiteSpace=wrap;connectable=0;fillColor=none;top=0;left=0;bottom=0;right=0;overflow=hidden;" parent="469" vertex="1">
                    <mxGeometry x="52" width="118" height="40" as="geometry"/>
                </mxCell>
                <mxCell id="472" value="char" style="shape=partialRectangle;whiteSpace=wrap;connectable=0;fillColor=none;top=0;left=0;bottom=0;right=0;overflow=hidden;" parent="469" vertex="1">
                    <mxGeometry x="170" width="70" height="40" as="geometry"/>
                </mxCell>
                <mxCell id="473" value="" style="shape=partialRectangle;whiteSpace=wrap;collapsible=0;dropTarget=0;pointerEvents=0;fillColor=none;top=0;left=0;bottom=0;right=0;points=[[0,0.5],[1,0.5]];portConstraint=eastwest;" parent="428" vertex="1">
                    <mxGeometry y="470" width="240" height="40" as="geometry"/>
                </mxCell>
                <mxCell id="474" value="" style="shape=partialRectangle;whiteSpace=wrap;connectable=0;fillColor=none;top=0;left=0;bottom=0;right=0;overflow=hidden;" parent="473" vertex="1">
                    <mxGeometry width="52" height="40" as="geometry"/>
                </mxCell>
                <mxCell id="475" value="mimg_path2" style="shape=partialRectangle;whiteSpace=wrap;connectable=0;fillColor=none;top=0;left=0;bottom=0;right=0;overflow=hidden;" parent="473" vertex="1">
                    <mxGeometry x="52" width="118" height="40" as="geometry"/>
                </mxCell>
                <mxCell id="476" value="char" style="shape=partialRectangle;whiteSpace=wrap;connectable=0;fillColor=none;top=0;left=0;bottom=0;right=0;overflow=hidden;" parent="473" vertex="1">
                    <mxGeometry x="170" width="70" height="40" as="geometry"/>
                </mxCell>
                <mxCell id="477" value="" style="shape=partialRectangle;whiteSpace=wrap;collapsible=0;dropTarget=0;pointerEvents=0;fillColor=none;top=0;left=0;bottom=0;right=0;points=[[0,0.5],[1,0.5]];portConstraint=eastwest;" parent="428" vertex="1">
                    <mxGeometry y="510" width="240" height="40" as="geometry"/>
                </mxCell>
                <mxCell id="478" value="" style="shape=partialRectangle;whiteSpace=wrap;connectable=0;fillColor=none;top=0;left=0;bottom=0;right=0;overflow=hidden;" parent="477" vertex="1">
                    <mxGeometry width="52" height="40" as="geometry"/>
                </mxCell>
                <mxCell id="479" value="mimg_path3" style="shape=partialRectangle;whiteSpace=wrap;connectable=0;fillColor=none;top=0;left=0;bottom=0;right=0;overflow=hidden;" parent="477" vertex="1">
                    <mxGeometry x="52" width="118" height="40" as="geometry"/>
                </mxCell>
                <mxCell id="480" value="char" style="shape=partialRectangle;whiteSpace=wrap;connectable=0;fillColor=none;top=0;left=0;bottom=0;right=0;overflow=hidden;" parent="477" vertex="1">
                    <mxGeometry x="170" width="70" height="40" as="geometry"/>
                </mxCell>
                <mxCell id="481" value="" style="shape=partialRectangle;whiteSpace=wrap;collapsible=0;dropTarget=0;pointerEvents=0;fillColor=none;top=0;left=0;bottom=0;right=0;points=[[0,0.5],[1,0.5]];portConstraint=eastwest;" parent="428" vertex="1">
                    <mxGeometry y="550" width="240" height="40" as="geometry"/>
                </mxCell>
                <mxCell id="482" value="" style="shape=partialRectangle;whiteSpace=wrap;connectable=0;fillColor=none;top=0;left=0;bottom=0;right=0;overflow=hidden;" parent="481" vertex="1">
                    <mxGeometry width="52" height="40" as="geometry"/>
                </mxCell>
                <mxCell id="483" value="aimg_path" style="shape=partialRectangle;whiteSpace=wrap;connectable=0;fillColor=none;top=0;left=0;bottom=0;right=0;overflow=hidden;" parent="481" vertex="1">
                    <mxGeometry x="52" width="118" height="40" as="geometry"/>
                </mxCell>
                <mxCell id="484" value="char" style="shape=partialRectangle;whiteSpace=wrap;connectable=0;fillColor=none;top=0;left=0;bottom=0;right=0;overflow=hidden;" parent="481" vertex="1">
                    <mxGeometry x="170" width="70" height="40" as="geometry"/>
                </mxCell>
                <mxCell id="485" value="" style="shape=partialRectangle;whiteSpace=wrap;collapsible=0;dropTarget=0;pointerEvents=0;fillColor=none;top=0;left=0;bottom=0;right=0;points=[[0,0.5],[1,0.5]];portConstraint=eastwest;" parent="428" vertex="1">
                    <mxGeometry y="590" width="240" height="40" as="geometry"/>
                </mxCell>
                <mxCell id="486" value="" style="shape=partialRectangle;whiteSpace=wrap;connectable=0;fillColor=none;top=0;left=0;bottom=0;right=0;overflow=hidden;" parent="485" vertex="1">
                    <mxGeometry width="52" height="40" as="geometry"/>
                </mxCell>
                <mxCell id="487" value="season" style="shape=partialRectangle;whiteSpace=wrap;connectable=0;fillColor=none;top=0;left=0;bottom=0;right=0;overflow=hidden;" parent="485" vertex="1">
                    <mxGeometry x="52" width="118" height="40" as="geometry"/>
                </mxCell>
                <mxCell id="488" value="char" style="shape=partialRectangle;whiteSpace=wrap;connectable=0;fillColor=none;top=0;left=0;bottom=0;right=0;overflow=hidden;" parent="485" vertex="1">
                    <mxGeometry x="170" width="70" height="40" as="geometry"/>
                </mxCell>
                <mxCell id="489" value="" style="shape=partialRectangle;whiteSpace=wrap;collapsible=0;dropTarget=0;pointerEvents=0;fillColor=none;top=0;left=0;bottom=0;right=0;points=[[0,0.5],[1,0.5]];portConstraint=eastwest;" parent="428" vertex="1">
                    <mxGeometry y="630" width="240" height="40" as="geometry"/>
                </mxCell>
                <mxCell id="490" value="" style="shape=partialRectangle;whiteSpace=wrap;connectable=0;fillColor=none;top=0;left=0;bottom=0;right=0;overflow=hidden;" parent="489" vertex="1">
                    <mxGeometry width="52" height="40" as="geometry"/>
                </mxCell>
                <mxCell id="491" value="question_num" style="shape=partialRectangle;whiteSpace=wrap;connectable=0;fillColor=none;top=0;left=0;bottom=0;right=0;overflow=hidden;" parent="489" vertex="1">
                    <mxGeometry x="52" width="118" height="40" as="geometry"/>
                </mxCell>
                <mxCell id="492" value="char" style="shape=partialRectangle;whiteSpace=wrap;connectable=0;fillColor=none;top=0;left=0;bottom=0;right=0;overflow=hidden;" parent="489" vertex="1">
                    <mxGeometry x="170" width="70" height="40" as="geometry"/>
                </mxCell>
                <mxCell id="493" value="" style="shape=partialRectangle;whiteSpace=wrap;collapsible=0;dropTarget=0;pointerEvents=0;fillColor=none;top=0;left=0;bottom=0;right=0;points=[[0,0.5],[1,0.5]];portConstraint=eastwest;" parent="428" vertex="1">
                    <mxGeometry y="670" width="240" height="40" as="geometry"/>
                </mxCell>
                <mxCell id="494" value="" style="shape=partialRectangle;whiteSpace=wrap;connectable=0;fillColor=none;top=0;left=0;bottom=0;right=0;overflow=hidden;" parent="493" vertex="1">
                    <mxGeometry width="52" height="40" as="geometry"/>
                </mxCell>
                <mxCell id="495" value="genre" style="shape=partialRectangle;whiteSpace=wrap;connectable=0;fillColor=none;top=0;left=0;bottom=0;right=0;overflow=hidden;" parent="493" vertex="1">
                    <mxGeometry x="52" width="118" height="40" as="geometry"/>
                </mxCell>
                <mxCell id="496" value="char" style="shape=partialRectangle;whiteSpace=wrap;connectable=0;fillColor=none;top=0;left=0;bottom=0;right=0;overflow=hidden;" parent="493" vertex="1">
                    <mxGeometry x="170" width="70" height="40" as="geometry"/>
                </mxCell>
                <mxCell id="497" value="" style="edgeStyle=entityRelationEdgeStyle;fontSize=12;endArrow=ERzeroToMany;startArrow=ERzeroToOne;entryX=-0.006;entryY=0.383;entryDx=0;entryDy=0;entryPerimeter=0;" parent="1" source="429" target="369" edge="1">
                    <mxGeometry width="100" height="100" relative="1" as="geometry">
                        <mxPoint x="360" y="720" as="sourcePoint"/>
                        <mxPoint x="575.9200000000001" y="721.84" as="targetPoint"/>
                    </mxGeometry>
                </mxCell>
                <mxCell id="498" value="answer_result_sections" style="shape=table;startSize=30;container=1;collapsible=0;childLayout=tableLayout;fontStyle=1;align=center;fillColor=none;" parent="1" vertex="1">
                    <mxGeometry x="330" y="920" width="330" height="469" as="geometry"/>
                </mxCell>
                <mxCell id="499" value="" style="shape=partialRectangle;whiteSpace=wrap;collapsible=0;dropTarget=0;pointerEvents=0;fillColor=none;top=0;left=0;bottom=0;right=0;points=[[0,0.5],[1,0.5]];portConstraint=eastwest;" parent="498" vertex="1">
                    <mxGeometry y="30" width="330" height="41" as="geometry"/>
                </mxCell>
                <mxCell id="500" value="PK" style="shape=partialRectangle;whiteSpace=wrap;connectable=0;fillColor=none;top=0;left=0;bottom=0;right=0;overflow=hidden;" parent="499" vertex="1">
                    <mxGeometry width="72" height="41" as="geometry"/>
                </mxCell>
                <mxCell id="501" value="id" style="shape=partialRectangle;whiteSpace=wrap;connectable=0;fillColor=none;top=0;left=0;bottom=0;right=0;overflow=hidden;" parent="499" vertex="1">
                    <mxGeometry x="72" width="168" height="41" as="geometry"/>
                </mxCell>
                <mxCell id="502" value="int" style="shape=partialRectangle;whiteSpace=wrap;connectable=0;fillColor=none;top=0;left=0;bottom=0;right=0;overflow=hidden;" parent="499" vertex="1">
                    <mxGeometry x="240" width="90" height="41" as="geometry"/>
                </mxCell>
                <mxCell id="503" value="" style="shape=partialRectangle;whiteSpace=wrap;collapsible=0;dropTarget=0;pointerEvents=0;fillColor=none;top=0;left=0;bottom=0;right=0;points=[[0,0.5],[1,0.5]];portConstraint=eastwest;" parent="498" vertex="1">
                    <mxGeometry y="71" width="330" height="41" as="geometry"/>
                </mxCell>
                <mxCell id="504" value="" style="shape=partialRectangle;whiteSpace=wrap;connectable=0;fillColor=none;top=0;left=0;bottom=0;right=0;overflow=hidden;" parent="503" vertex="1">
                    <mxGeometry width="72" height="41" as="geometry"/>
                </mxCell>
                <mxCell id="505" value="created_at" style="shape=partialRectangle;whiteSpace=wrap;connectable=0;fillColor=none;top=0;left=0;bottom=0;right=0;overflow=hidden;" parent="503" vertex="1">
                    <mxGeometry x="72" width="168" height="41" as="geometry"/>
                </mxCell>
                <mxCell id="506" value="datetime" style="shape=partialRectangle;whiteSpace=wrap;connectable=0;fillColor=none;top=0;left=0;bottom=0;right=0;overflow=hidden;" parent="503" vertex="1">
                    <mxGeometry x="240" width="90" height="41" as="geometry"/>
                </mxCell>
                <mxCell id="507" value="" style="shape=partialRectangle;whiteSpace=wrap;collapsible=0;dropTarget=0;pointerEvents=0;fillColor=none;top=0;left=0;bottom=0;right=0;points=[[0,0.5],[1,0.5]];portConstraint=eastwest;" parent="498" vertex="1">
                    <mxGeometry y="112" width="330" height="40" as="geometry"/>
                </mxCell>
                <mxCell id="508" value="" style="shape=partialRectangle;whiteSpace=wrap;connectable=0;fillColor=none;top=0;left=0;bottom=0;right=0;overflow=hidden;" parent="507" vertex="1">
                    <mxGeometry width="72" height="40" as="geometry"/>
                </mxCell>
                <mxCell id="509" value="updated_at" style="shape=partialRectangle;whiteSpace=wrap;connectable=0;fillColor=none;top=0;left=0;bottom=0;right=0;overflow=hidden;" parent="507" vertex="1">
                    <mxGeometry x="72" width="168" height="40" as="geometry"/>
                </mxCell>
                <mxCell id="510" value="datetime" style="shape=partialRectangle;whiteSpace=wrap;connectable=0;fillColor=none;top=0;left=0;bottom=0;right=0;overflow=hidden;" parent="507" vertex="1">
                    <mxGeometry x="240" width="90" height="40" as="geometry"/>
                </mxCell>
                <mxCell id="511" value="" style="shape=partialRectangle;whiteSpace=wrap;collapsible=0;dropTarget=0;pointerEvents=0;fillColor=none;top=0;left=0;bottom=0;right=0;points=[[0,0.5],[1,0.5]];portConstraint=eastwest;" parent="498" vertex="1">
                    <mxGeometry y="152" width="330" height="41" as="geometry"/>
                </mxCell>
                <mxCell id="512" value="" style="shape=partialRectangle;whiteSpace=wrap;connectable=0;fillColor=none;top=0;left=0;bottom=0;right=0;overflow=hidden;" parent="511" vertex="1">
                    <mxGeometry width="72" height="41" as="geometry"/>
                </mxCell>
                <mxCell id="513" value="deleted_at" style="shape=partialRectangle;whiteSpace=wrap;connectable=0;fillColor=none;top=0;left=0;bottom=0;right=0;overflow=hidden;" parent="511" vertex="1">
                    <mxGeometry x="72" width="168" height="41" as="geometry"/>
                </mxCell>
                <mxCell id="514" value="datetime" style="shape=partialRectangle;whiteSpace=wrap;connectable=0;fillColor=none;top=0;left=0;bottom=0;right=0;overflow=hidden;" parent="511" vertex="1">
                    <mxGeometry x="240" width="90" height="41" as="geometry"/>
                </mxCell>
                <mxCell id="515" value="" style="shape=partialRectangle;whiteSpace=wrap;collapsible=0;dropTarget=0;pointerEvents=0;fillColor=none;top=0;left=0;bottom=0;right=0;points=[[0,0.5],[1,0.5]];portConstraint=eastwest;" parent="498" vertex="1">
                    <mxGeometry y="193" width="330" height="41" as="geometry"/>
                </mxCell>
                <mxCell id="516" value="FK" style="shape=partialRectangle;whiteSpace=wrap;connectable=0;fillColor=none;top=0;left=0;bottom=0;right=0;overflow=hidden;" parent="515" vertex="1">
                    <mxGeometry width="72" height="41" as="geometry"/>
                </mxCell>
                <mxCell id="517" value="user_id" style="shape=partialRectangle;whiteSpace=wrap;connectable=0;fillColor=none;top=0;left=0;bottom=0;right=0;overflow=hidden;" parent="515" vertex="1">
                    <mxGeometry x="72" width="168" height="41" as="geometry"/>
                </mxCell>
                <mxCell id="518" value="int" style="shape=partialRectangle;whiteSpace=wrap;connectable=0;fillColor=none;top=0;left=0;bottom=0;right=0;overflow=hidden;" parent="515" vertex="1">
                    <mxGeometry x="240" width="90" height="41" as="geometry"/>
                </mxCell>
                <mxCell id="519" value="" style="shape=partialRectangle;whiteSpace=wrap;collapsible=0;dropTarget=0;pointerEvents=0;fillColor=none;top=0;left=0;bottom=0;right=0;points=[[0,0.5],[1,0.5]];portConstraint=eastwest;" parent="498" vertex="1">
                    <mxGeometry y="234" width="330" height="41" as="geometry"/>
                </mxCell>
                <mxCell id="520" value="" style="shape=partialRectangle;whiteSpace=wrap;connectable=0;fillColor=none;top=0;left=0;bottom=0;right=0;overflow=hidden;" parent="519" vertex="1">
                    <mxGeometry width="72" height="41" as="geometry"/>
                </mxCell>
                <mxCell id="521" value="user_answer" style="shape=partialRectangle;whiteSpace=wrap;connectable=0;fillColor=none;top=0;left=0;bottom=0;right=0;overflow=hidden;" parent="519" vertex="1">
                    <mxGeometry x="72" width="168" height="41" as="geometry"/>
                </mxCell>
                <mxCell id="522" value="varchar" style="shape=partialRectangle;whiteSpace=wrap;connectable=0;fillColor=none;top=0;left=0;bottom=0;right=0;overflow=hidden;" parent="519" vertex="1">
                    <mxGeometry x="240" width="90" height="41" as="geometry"/>
                </mxCell>
                <mxCell id="523" value="" style="shape=partialRectangle;whiteSpace=wrap;collapsible=0;dropTarget=0;pointerEvents=0;fillColor=none;top=0;left=0;bottom=0;right=0;points=[[0,0.5],[1,0.5]];portConstraint=eastwest;" parent="498" vertex="1">
                    <mxGeometry y="275" width="330" height="40" as="geometry"/>
                </mxCell>
                <mxCell id="524" value="" style="shape=partialRectangle;whiteSpace=wrap;connectable=0;fillColor=none;top=0;left=0;bottom=0;right=0;overflow=hidden;" parent="523" vertex="1">
                    <mxGeometry width="72" height="40" as="geometry"/>
                </mxCell>
                <mxCell id="525" value="answer_result_ids" style="shape=partialRectangle;whiteSpace=wrap;connectable=0;fillColor=none;top=0;left=0;bottom=0;right=0;overflow=hidden;" parent="523" vertex="1">
                    <mxGeometry x="72" width="168" height="40" as="geometry"/>
                </mxCell>
                <mxCell id="526" value="text" style="shape=partialRectangle;whiteSpace=wrap;connectable=0;fillColor=none;top=0;left=0;bottom=0;right=0;overflow=hidden;" parent="523" vertex="1">
                    <mxGeometry x="240" width="90" height="40" as="geometry"/>
                </mxCell>
                <mxCell id="527" value="" style="shape=partialRectangle;whiteSpace=wrap;collapsible=0;dropTarget=0;pointerEvents=0;fillColor=none;top=0;left=0;bottom=0;right=0;points=[[0,0.5],[1,0.5]];portConstraint=eastwest;" parent="498" vertex="1">
                    <mxGeometry y="315" width="330" height="41" as="geometry"/>
                </mxCell>
                <mxCell id="528" value="" style="shape=partialRectangle;whiteSpace=wrap;connectable=0;fillColor=none;top=0;left=0;bottom=0;right=0;overflow=hidden;" parent="527" vertex="1">
                    <mxGeometry width="72" height="41" as="geometry"/>
                </mxCell>
                <mxCell id="529" value="correct_answer_number" style="shape=partialRectangle;whiteSpace=wrap;connectable=0;fillColor=none;top=0;left=0;bottom=0;right=0;overflow=hidden;" parent="527" vertex="1">
                    <mxGeometry x="72" width="168" height="41" as="geometry"/>
                </mxCell>
                <mxCell id="530" value="int" style="shape=partialRectangle;whiteSpace=wrap;connectable=0;fillColor=none;top=0;left=0;bottom=0;right=0;overflow=hidden;" parent="527" vertex="1">
                    <mxGeometry x="240" width="90" height="41" as="geometry"/>
                </mxCell>
                <mxCell id="531" value="" style="shape=partialRectangle;whiteSpace=wrap;collapsible=0;dropTarget=0;pointerEvents=0;fillColor=none;top=0;left=0;bottom=0;right=0;points=[[0,0.5],[1,0.5]];portConstraint=eastwest;" parent="498" vertex="1">
                    <mxGeometry y="356" width="330" height="41" as="geometry"/>
                </mxCell>
                <mxCell id="532" value="" style="shape=partialRectangle;whiteSpace=wrap;connectable=0;fillColor=none;top=0;left=0;bottom=0;right=0;overflow=hidden;" parent="531" vertex="1">
                    <mxGeometry width="72" height="41" as="geometry"/>
                </mxCell>
                <mxCell id="533" value="other_focus_second" style="shape=partialRectangle;whiteSpace=wrap;connectable=0;fillColor=none;top=0;left=0;bottom=0;right=0;overflow=hidden;" parent="531" vertex="1">
                    <mxGeometry x="72" width="168" height="41" as="geometry"/>
                </mxCell>
                <mxCell id="534" value="int" style="shape=partialRectangle;whiteSpace=wrap;connectable=0;fillColor=none;top=0;left=0;bottom=0;right=0;overflow=hidden;" parent="531" vertex="1">
                    <mxGeometry x="240" width="90" height="41" as="geometry"/>
                </mxCell>
                <mxCell id="535" value="" style="shape=partialRectangle;whiteSpace=wrap;collapsible=0;dropTarget=0;pointerEvents=0;fillColor=none;top=0;left=0;bottom=0;right=0;points=[[0,0.5],[1,0.5]];portConstraint=eastwest;" parent="498" vertex="1">
                    <mxGeometry y="397" width="330" height="32" as="geometry"/>
                </mxCell>
                <mxCell id="536" value="" style="shape=partialRectangle;whiteSpace=wrap;connectable=0;fillColor=none;top=0;left=0;bottom=0;right=0;overflow=hidden;" parent="535" vertex="1">
                    <mxGeometry width="72" height="32" as="geometry"/>
                </mxCell>
                <mxCell id="537" value="start_time" style="shape=partialRectangle;whiteSpace=wrap;connectable=0;fillColor=none;top=0;left=0;bottom=0;right=0;overflow=hidden;" parent="535" vertex="1">
                    <mxGeometry x="72" width="168" height="32" as="geometry"/>
                </mxCell>
                <mxCell id="538" value="datetime" style="shape=partialRectangle;whiteSpace=wrap;connectable=0;fillColor=none;top=0;left=0;bottom=0;right=0;overflow=hidden;" parent="535" vertex="1">
                    <mxGeometry x="240" width="90" height="32" as="geometry"/>
                </mxCell>
                <mxCell id="539" value="" style="shape=partialRectangle;whiteSpace=wrap;collapsible=0;dropTarget=0;pointerEvents=0;fillColor=none;top=0;left=0;bottom=0;right=0;points=[[0,0.5],[1,0.5]];portConstraint=eastwest;" parent="498" vertex="1">
                    <mxGeometry y="429" width="330" height="40" as="geometry"/>
                </mxCell>
                <mxCell id="540" value="" style="shape=partialRectangle;whiteSpace=wrap;connectable=0;fillColor=none;top=0;left=0;bottom=0;right=0;overflow=hidden;" parent="539" vertex="1">
                    <mxGeometry width="72" height="40" as="geometry"/>
                </mxCell>
                <mxCell id="541" value="end_time" style="shape=partialRectangle;whiteSpace=wrap;connectable=0;fillColor=none;top=0;left=0;bottom=0;right=0;overflow=hidden;" parent="539" vertex="1">
                    <mxGeometry x="72" width="168" height="40" as="geometry"/>
                </mxCell>
                <mxCell id="542" value="datetime" style="shape=partialRectangle;whiteSpace=wrap;connectable=0;fillColor=none;top=0;left=0;bottom=0;right=0;overflow=hidden;" parent="539" vertex="1">
                    <mxGeometry x="240" width="90" height="40" as="geometry"/>
                </mxCell>
                <mxCell id="551" value="questionnaires" style="shape=table;startSize=30;container=1;collapsible=0;childLayout=tableLayout;fontStyle=1;align=center;fillColor=none;" parent="1" vertex="1">
                    <mxGeometry x="750" y="910" width="330" height="479" as="geometry"/>
                </mxCell>
                <mxCell id="552" value="" style="shape=partialRectangle;whiteSpace=wrap;collapsible=0;dropTarget=0;pointerEvents=0;fillColor=none;top=0;left=0;bottom=0;right=0;points=[[0,0.5],[1,0.5]];portConstraint=eastwest;" parent="551" vertex="1">
                    <mxGeometry y="30" width="330" height="41" as="geometry"/>
                </mxCell>
                <mxCell id="553" value="PK" style="shape=partialRectangle;whiteSpace=wrap;connectable=0;fillColor=none;top=0;left=0;bottom=0;right=0;overflow=hidden;" parent="552" vertex="1">
                    <mxGeometry width="72" height="41" as="geometry"/>
                </mxCell>
                <mxCell id="554" value="id" style="shape=partialRectangle;whiteSpace=wrap;connectable=0;fillColor=none;top=0;left=0;bottom=0;right=0;overflow=hidden;" parent="552" vertex="1">
                    <mxGeometry x="72" width="171" height="41" as="geometry"/>
                </mxCell>
                <mxCell id="555" value="int" style="shape=partialRectangle;whiteSpace=wrap;connectable=0;fillColor=none;top=0;left=0;bottom=0;right=0;overflow=hidden;" parent="552" vertex="1">
                    <mxGeometry x="243" width="87" height="41" as="geometry"/>
                </mxCell>
                <mxCell id="556" value="" style="shape=partialRectangle;whiteSpace=wrap;collapsible=0;dropTarget=0;pointerEvents=0;fillColor=none;top=0;left=0;bottom=0;right=0;points=[[0,0.5],[1,0.5]];portConstraint=eastwest;" parent="551" vertex="1">
                    <mxGeometry y="71" width="330" height="41" as="geometry"/>
                </mxCell>
                <mxCell id="557" value="" style="shape=partialRectangle;whiteSpace=wrap;connectable=0;fillColor=none;top=0;left=0;bottom=0;right=0;overflow=hidden;" parent="556" vertex="1">
                    <mxGeometry width="72" height="41" as="geometry"/>
                </mxCell>
                <mxCell id="558" value="created_at" style="shape=partialRectangle;whiteSpace=wrap;connectable=0;fillColor=none;top=0;left=0;bottom=0;right=0;overflow=hidden;" parent="556" vertex="1">
                    <mxGeometry x="72" width="171" height="41" as="geometry"/>
                </mxCell>
                <mxCell id="559" value="datetime" style="shape=partialRectangle;whiteSpace=wrap;connectable=0;fillColor=none;top=0;left=0;bottom=0;right=0;overflow=hidden;" parent="556" vertex="1">
                    <mxGeometry x="243" width="87" height="41" as="geometry"/>
                </mxCell>
                <mxCell id="560" value="" style="shape=partialRectangle;whiteSpace=wrap;collapsible=0;dropTarget=0;pointerEvents=0;fillColor=none;top=0;left=0;bottom=0;right=0;points=[[0,0.5],[1,0.5]];portConstraint=eastwest;" parent="551" vertex="1">
                    <mxGeometry y="112" width="330" height="40" as="geometry"/>
                </mxCell>
                <mxCell id="561" value="" style="shape=partialRectangle;whiteSpace=wrap;connectable=0;fillColor=none;top=0;left=0;bottom=0;right=0;overflow=hidden;" parent="560" vertex="1">
                    <mxGeometry width="72" height="40" as="geometry"/>
                </mxCell>
                <mxCell id="562" value="updated_at" style="shape=partialRectangle;whiteSpace=wrap;connectable=0;fillColor=none;top=0;left=0;bottom=0;right=0;overflow=hidden;" parent="560" vertex="1">
                    <mxGeometry x="72" width="171" height="40" as="geometry"/>
                </mxCell>
                <mxCell id="563" value="datetime" style="shape=partialRectangle;whiteSpace=wrap;connectable=0;fillColor=none;top=0;left=0;bottom=0;right=0;overflow=hidden;" parent="560" vertex="1">
                    <mxGeometry x="243" width="87" height="40" as="geometry"/>
                </mxCell>
                <mxCell id="564" value="" style="shape=partialRectangle;whiteSpace=wrap;collapsible=0;dropTarget=0;pointerEvents=0;fillColor=none;top=0;left=0;bottom=0;right=0;points=[[0,0.5],[1,0.5]];portConstraint=eastwest;" parent="551" vertex="1">
                    <mxGeometry y="152" width="330" height="41" as="geometry"/>
                </mxCell>
                <mxCell id="565" value="" style="shape=partialRectangle;whiteSpace=wrap;connectable=0;fillColor=none;top=0;left=0;bottom=0;right=0;overflow=hidden;" parent="564" vertex="1">
                    <mxGeometry width="72" height="41" as="geometry"/>
                </mxCell>
                <mxCell id="566" value="deleted_at" style="shape=partialRectangle;whiteSpace=wrap;connectable=0;fillColor=none;top=0;left=0;bottom=0;right=0;overflow=hidden;" parent="564" vertex="1">
                    <mxGeometry x="72" width="171" height="41" as="geometry"/>
                </mxCell>
                <mxCell id="567" value="datetime" style="shape=partialRectangle;whiteSpace=wrap;connectable=0;fillColor=none;top=0;left=0;bottom=0;right=0;overflow=hidden;" parent="564" vertex="1">
                    <mxGeometry x="243" width="87" height="41" as="geometry"/>
                </mxCell>
                <mxCell id="568" value="" style="shape=partialRectangle;whiteSpace=wrap;collapsible=0;dropTarget=0;pointerEvents=0;fillColor=none;top=0;left=0;bottom=0;right=0;points=[[0,0.5],[1,0.5]];portConstraint=eastwest;" parent="551" vertex="1">
                    <mxGeometry y="193" width="330" height="41" as="geometry"/>
                </mxCell>
                <mxCell id="569" value="FK" style="shape=partialRectangle;whiteSpace=wrap;connectable=0;fillColor=none;top=0;left=0;bottom=0;right=0;overflow=hidden;" parent="568" vertex="1">
                    <mxGeometry width="72" height="41" as="geometry"/>
                </mxCell>
                <mxCell id="570" value="user_id" style="shape=partialRectangle;whiteSpace=wrap;connectable=0;fillColor=none;top=0;left=0;bottom=0;right=0;overflow=hidden;" parent="568" vertex="1">
                    <mxGeometry x="72" width="171" height="41" as="geometry"/>
                </mxCell>
                <mxCell id="571" value="int" style="shape=partialRectangle;whiteSpace=wrap;connectable=0;fillColor=none;top=0;left=0;bottom=0;right=0;overflow=hidden;" parent="568" vertex="1">
                    <mxGeometry x="243" width="87" height="41" as="geometry"/>
                </mxCell>
                <mxCell id="572" value="" style="shape=partialRectangle;whiteSpace=wrap;collapsible=0;dropTarget=0;pointerEvents=0;fillColor=none;top=0;left=0;bottom=0;right=0;points=[[0,0.5],[1,0.5]];portConstraint=eastwest;" parent="551" vertex="1">
                    <mxGeometry y="234" width="330" height="41" as="geometry"/>
                </mxCell>
                <mxCell id="573" value="FK" style="shape=partialRectangle;whiteSpace=wrap;connectable=0;fillColor=none;top=0;left=0;bottom=0;right=0;overflow=hidden;" parent="572" vertex="1">
                    <mxGeometry width="72" height="41" as="geometry"/>
                </mxCell>
                <mxCell id="574" value="answer_result_section_id" style="shape=partialRectangle;whiteSpace=wrap;connectable=0;fillColor=none;top=0;left=0;bottom=0;right=0;overflow=hidden;" parent="572" vertex="1">
                    <mxGeometry x="72" width="171" height="41" as="geometry"/>
                </mxCell>
                <mxCell id="575" value="int" style="shape=partialRectangle;whiteSpace=wrap;connectable=0;fillColor=none;top=0;left=0;bottom=0;right=0;overflow=hidden;" parent="572" vertex="1">
                    <mxGeometry x="243" width="87" height="41" as="geometry"/>
                </mxCell>
                <mxCell id="580" value="" style="shape=partialRectangle;whiteSpace=wrap;collapsible=0;dropTarget=0;pointerEvents=0;fillColor=none;top=0;left=0;bottom=0;right=0;points=[[0,0.5],[1,0.5]];portConstraint=eastwest;" parent="551" vertex="1">
                    <mxGeometry y="275" width="330" height="41" as="geometry"/>
                </mxCell>
                <mxCell id="581" value="" style="shape=partialRectangle;whiteSpace=wrap;connectable=0;fillColor=none;top=0;left=0;bottom=0;right=0;overflow=hidden;" parent="580" vertex="1">
                    <mxGeometry width="72" height="41" as="geometry"/>
                </mxCell>
                <mxCell id="582" value="correct_answer_number" style="shape=partialRectangle;whiteSpace=wrap;connectable=0;fillColor=none;top=0;left=0;bottom=0;right=0;overflow=hidden;" parent="580" vertex="1">
                    <mxGeometry x="72" width="171" height="41" as="geometry"/>
                </mxCell>
                <mxCell id="583" value="int" style="shape=partialRectangle;whiteSpace=wrap;connectable=0;fillColor=none;top=0;left=0;bottom=0;right=0;overflow=hidden;" parent="580" vertex="1">
                    <mxGeometry x="243" width="87" height="41" as="geometry"/>
                </mxCell>
                <mxCell id="584" value="" style="shape=partialRectangle;whiteSpace=wrap;collapsible=0;dropTarget=0;pointerEvents=0;fillColor=none;top=0;left=0;bottom=0;right=0;points=[[0,0.5],[1,0.5]];portConstraint=eastwest;" parent="551" vertex="1">
                    <mxGeometry y="316" width="330" height="41" as="geometry"/>
                </mxCell>
                <mxCell id="585" value="" style="shape=partialRectangle;whiteSpace=wrap;connectable=0;fillColor=none;top=0;left=0;bottom=0;right=0;overflow=hidden;" parent="584" vertex="1">
                    <mxGeometry width="72" height="41" as="geometry"/>
                </mxCell>
                <mxCell id="586" value="concentration" style="shape=partialRectangle;whiteSpace=wrap;connectable=0;fillColor=none;top=0;left=0;bottom=0;right=0;overflow=hidden;" parent="584" vertex="1">
                    <mxGeometry x="72" width="171" height="41" as="geometry"/>
                </mxCell>
                <mxCell id="587" value="int" style="shape=partialRectangle;whiteSpace=wrap;connectable=0;fillColor=none;top=0;left=0;bottom=0;right=0;overflow=hidden;" parent="584" vertex="1">
                    <mxGeometry x="243" width="87" height="41" as="geometry"/>
                </mxCell>
                <mxCell id="588" value="" style="shape=partialRectangle;whiteSpace=wrap;collapsible=0;dropTarget=0;pointerEvents=0;fillColor=none;top=0;left=0;bottom=0;right=0;points=[[0,0.5],[1,0.5]];portConstraint=eastwest;" parent="551" vertex="1">
                    <mxGeometry y="357" width="330" height="41" as="geometry"/>
                </mxCell>
                <mxCell id="589" value="" style="shape=partialRectangle;whiteSpace=wrap;connectable=0;fillColor=none;top=0;left=0;bottom=0;right=0;overflow=hidden;" parent="588" vertex="1">
                    <mxGeometry width="72" height="41" as="geometry"/>
                </mxCell>
                <mxCell id="590" value="while_doing" style="shape=partialRectangle;whiteSpace=wrap;connectable=0;fillColor=none;top=0;left=0;bottom=0;right=0;overflow=hidden;" parent="588" vertex="1">
                    <mxGeometry x="72" width="171" height="41" as="geometry"/>
                </mxCell>
                <mxCell id="591" value="tinyint" style="shape=partialRectangle;whiteSpace=wrap;connectable=0;fillColor=none;top=0;left=0;bottom=0;right=0;overflow=hidden;" parent="588" vertex="1">
                    <mxGeometry x="243" width="87" height="41" as="geometry"/>
                </mxCell>
                <mxCell id="592" value="" style="shape=partialRectangle;whiteSpace=wrap;collapsible=0;dropTarget=0;pointerEvents=0;fillColor=none;top=0;left=0;bottom=0;right=0;points=[[0,0.5],[1,0.5]];portConstraint=eastwest;" parent="551" vertex="1">
                    <mxGeometry y="398" width="330" height="40" as="geometry"/>
                </mxCell>
                <mxCell id="593" value="" style="shape=partialRectangle;whiteSpace=wrap;connectable=0;fillColor=none;top=0;left=0;bottom=0;right=0;overflow=hidden;" parent="592" vertex="1">
                    <mxGeometry width="72" height="40" as="geometry"/>
                </mxCell>
                <mxCell id="594" value="cheating" style="shape=partialRectangle;whiteSpace=wrap;connectable=0;fillColor=none;top=0;left=0;bottom=0;right=0;overflow=hidden;" parent="592" vertex="1">
                    <mxGeometry x="72" width="171" height="40" as="geometry"/>
                </mxCell>
                <mxCell id="595" value="tinyint" style="shape=partialRectangle;whiteSpace=wrap;connectable=0;fillColor=none;top=0;left=0;bottom=0;right=0;overflow=hidden;" parent="592" vertex="1">
                    <mxGeometry x="243" width="87" height="40" as="geometry"/>
                </mxCell>
                <mxCell id="596" value="" style="shape=partialRectangle;whiteSpace=wrap;collapsible=0;dropTarget=0;pointerEvents=0;fillColor=none;top=0;left=0;bottom=0;right=0;points=[[0,0.5],[1,0.5]];portConstraint=eastwest;" parent="551" vertex="1">
                    <mxGeometry y="438" width="330" height="41" as="geometry"/>
                </mxCell>
                <mxCell id="597" value="" style="shape=partialRectangle;whiteSpace=wrap;connectable=0;fillColor=none;top=0;left=0;bottom=0;right=0;overflow=hidden;" parent="596" vertex="1">
                    <mxGeometry width="72" height="41" as="geometry"/>
                </mxCell>
                <mxCell id="598" value="nonsense" style="shape=partialRectangle;whiteSpace=wrap;connectable=0;fillColor=none;top=0;left=0;bottom=0;right=0;overflow=hidden;" parent="596" vertex="1">
                    <mxGeometry x="72" width="171" height="41" as="geometry"/>
                </mxCell>
                <mxCell id="599" value="tinyint" style="shape=partialRectangle;whiteSpace=wrap;connectable=0;fillColor=none;top=0;left=0;bottom=0;right=0;overflow=hidden;" parent="596" vertex="1">
                    <mxGeometry x="243" width="87" height="41" as="geometry"/>
                </mxCell>
                <mxCell id="600" value="" style="edgeStyle=entityRelationEdgeStyle;fontSize=12;endArrow=ERzeroToMany;startArrow=ERzeroToOne;exitX=0.998;exitY=0.633;exitDx=0;exitDy=0;exitPerimeter=0;entryX=-0.002;entryY=0.463;entryDx=0;entryDy=0;entryPerimeter=0;" parent="1" source="302" target="515" edge="1">
                    <mxGeometry width="100" height="100" relative="1" as="geometry">
                        <mxPoint x="290" y="370" as="sourcePoint"/>
                        <mxPoint x="470" y="600" as="targetPoint"/>
                    </mxGeometry>
                </mxCell>
                <mxCell id="601" value="" style="edgeStyle=entityRelationEdgeStyle;fontSize=12;endArrow=ERzeroToMany;startArrow=ERzeroToOne;" parent="1" source="499" target="572" edge="1">
                    <mxGeometry width="100" height="100" relative="1" as="geometry">
                        <mxPoint x="880" y="1140" as="sourcePoint"/>
                        <mxPoint x="1059.82" y="1876.663" as="targetPoint"/>
                    </mxGeometry>
                </mxCell>
                <mxCell id="602" value="" style="edgeStyle=orthogonalEdgeStyle;fontSize=12;endArrow=ERzeroToMany;startArrow=ERzeroToOne;" parent="1" source="302" target="568" edge="1">
                    <mxGeometry width="100" height="100" relative="1" as="geometry">
                        <mxPoint x="330" y="350" as="sourcePoint"/>
                        <mxPoint x="870" y="940" as="targetPoint"/>
                        <Array as="points">
                            <mxPoint x="400" y="390"/>
                            <mxPoint x="400" y="910"/>
                            <mxPoint x="720" y="910"/>
                            <mxPoint x="720" y="1124"/>
                        </Array>
                    </mxGeometry>
                </mxCell>
                <mxCell id="603" value="concentration&#10;{&#10;    _id: ObjectId(...)&#10;    concentrationdata:[&#10;        {&#10;            angle: [&#10;                x,&#10;                y,&#10;                z&#10;            ],&#10;            w: w',&#10;            c1: c1',&#10;            c2: c2',&#10;            c3: c3',&#10;            face_image_path: &quot;path&quot;,&#10;            blink: blink',&#10;            face_move: face_move',&#10;        },&#10;        ...&#10;    ]&#10;}" style="shape=note;size=20;fillColor=none;align=left;" parent="1" vertex="1">
                    <mxGeometry x="770" y="560" width="235" height="330" as="geometry"/>
                </mxCell>
                <mxCell id="605" value="" style="endArrow=none;rounded=0;exitX=1.011;exitY=0.404;exitDx=0;exitDy=0;exitPerimeter=0;entryX=-0.006;entryY=0.167;entryDx=0;entryDy=0;entryPerimeter=0;" parent="1" source="373" target="603" edge="1">
                    <mxGeometry relative="1" as="geometry">
                        <mxPoint x="1010" y="750" as="sourcePoint"/>
                        <mxPoint x="1170" y="750" as="targetPoint"/>
                    </mxGeometry>
                </mxCell>
            </root>
        </mxGraphModel>
    </diagram>
</mxfile>